<?xml version="1.0" encoding="UTF-8"?>
<svg version="1.1" xmlns="http://www.w3.org/2000/svg" width="1081" height="278">
<path d="M0 0 C-0.0721875 0.55945312 -0.144375 1.11890625 -0.21875 1.6953125 C-2.96903132 25.45468721 1.7504717 47.41018696 16.66015625 66.48046875 C23.29336614 74.64150271 30.61842055 81.66187358 39 88 C39.52803223 88.40105957 40.05606445 88.80211914 40.60009766 89.21533203 C72.57716453 112.99165614 130.49128351 140 172 140 C172.49306641 138.83984375 172.49306641 138.83984375 172.99609375 137.65625 C177.22672582 128.39242692 182.27594048 121.99500696 191.5625 117.5 C199.54111708 114.70748402 210.11224975 114.3714739 218 117.625 C220.046875 118.73828125 220.046875 118.73828125 222 120 C223.05960937 120.67095703 223.05960937 120.67095703 224.140625 121.35546875 C231.59683132 126.50577423 236.28007857 133.02994821 238 142 C239.12260631 153.69153396 237.14934295 162.9502521 229.76953125 172.1796875 C223.49984102 178.62930261 216.04553174 182.15340852 207.03662109 182.48217773 C196.21921003 182.57136579 188.16834638 180.12126725 180 172.625 C174.5449214 166.57119326 172.84579255 160.95210839 172 153 C171.31413818 153.02094727 170.62827637 153.04189453 169.92163086 153.06347656 C110.95239781 154.60210076 11.85305506 138.17613471 -34 95 C-41.42738967 87.90955306 -46.27237469 79.07384241 -47.203125 68.74609375 C-47.58551509 49.91338204 -37.75106775 34.32041193 -25.18359375 21.08740234 C-4.90476506 0 -4.90476506 0 0 0 Z " fill="#2092CF" transform="translate(101,50)"/>
<path d="M0 0 C1.2478125 -0.00128906 2.495625 -0.00257812 3.78125 -0.00390625 C5.0909375 -0.00003906 6.400625 0.00382813 7.75 0.0078125 C9.0596875 0.00394531 10.369375 0.00007812 11.71875 -0.00390625 C13.59046875 -0.00197266 13.59046875 -0.00197266 15.5 0 C16.64984375 0.00112793 17.7996875 0.00225586 18.984375 0.00341797 C21.75 0.1328125 21.75 0.1328125 23.75 1.1328125 C23.90663528 18.49282088 23.46182695 35.78859957 22.75 53.1328125 C22.65321461 55.57680588 22.55685848 58.02081629 22.4609375 60.46484375 C22.22888008 66.35437124 21.99162576 72.24367018 21.75 78.1328125 C22.05431946 77.21461731 22.35863892 76.29642212 22.67218018 75.35040283 C25.54280675 66.69436181 28.42600457 58.04259827 31.32153702 49.3948555 C32.80972844 44.94890923 34.29346397 40.50157865 35.76708984 36.05078125 C37.18960136 31.7549121 38.62371972 27.46308058 40.06594086 23.17378998 C40.61390389 21.53734271 41.15768265 19.89948814 41.6971817 18.26023102 C42.45405538 15.9629062 43.22570568 13.67105335 44.00097656 11.37988281 C44.3300576 10.36352249 44.3300576 10.36352249 44.66578674 9.32662964 C46.02279183 5.37764891 47.45855762 2.74345153 50.75 0.1328125 C53.29956055 -0.3371582 53.29956055 -0.3371582 56.13671875 -0.29296875 C57.15701172 -0.28458984 58.17730469 -0.27621094 59.22851562 -0.26757812 C60.81696289 -0.22407227 60.81696289 -0.22407227 62.4375 -0.1796875 C63.50806641 -0.17001953 64.57863281 -0.16035156 65.68164062 -0.15039062 C73.5820212 -0.0351663 73.5820212 -0.0351663 74.75 1.1328125 C74.84496708 3.53629536 74.87558862 5.91092232 74.86352539 8.31469727 C74.86367142 9.06586823 74.86381744 9.81703918 74.8639679 10.5909729 C74.86326863 13.08541709 74.85547564 15.57978753 74.84765625 18.07421875 C74.84579212 19.79914814 74.84436819 21.52407807 74.84336853 23.24900818 C74.83954297 27.79793753 74.82971238 32.34683517 74.81866455 36.89575195 C74.80845124 41.53401256 74.80387108 46.17227827 74.79882812 50.81054688 C74.78809014 59.91798272 74.77101327 69.02539498 74.75 78.1328125 C74.99167908 77.35766296 75.23335815 76.58251343 75.48236084 75.78387451 C77.77566655 68.42917407 80.07010734 61.07482913 82.36577988 53.72086716 C83.54557242 49.94138077 84.72494686 46.16176504 85.90332031 42.38183594 C87.043473 38.72456639 88.1847833 35.06765986 89.32685089 31.41098785 C89.75936202 30.02548984 90.19147669 28.63986799 90.62316132 27.25411224 C91.61793604 24.06118842 92.61822892 20.87030004 93.62780762 17.68200684 C94.37383105 15.32253427 95.10804768 12.95929495 95.8302002 10.59240723 C96.17015015 9.50907104 96.5101001 8.42573486 96.86035156 7.30957031 C97.30051605 5.8791037 97.30051605 5.8791037 97.74957275 4.41973877 C98.75 2.1328125 98.75 2.1328125 101.75 0.1328125 C104.62915039 -0.12597656 104.62915039 -0.12597656 108.09765625 -0.1328125 C109.34224609 -0.13539062 110.58683594 -0.13796875 111.86914062 -0.140625 C113.82110352 -0.12902344 113.82110352 -0.12902344 115.8125 -0.1171875 C117.11767578 -0.12492188 118.42285156 -0.13265625 119.76757812 -0.140625 C121.6325293 -0.13675781 121.6325293 -0.13675781 123.53515625 -0.1328125 C125.25037476 -0.12942871 125.25037476 -0.12942871 127.00024414 -0.12597656 C129.75 0.1328125 129.75 0.1328125 131.75 2.1328125 C131.32263954 8.48774908 128.57236857 14.81632153 126.35546875 20.7265625 C126.01550873 21.6475322 125.67554871 22.56850189 125.32528687 23.51737976 C124.20150794 26.55791951 123.06959047 29.59535866 121.9375 32.6328125 C121.14455196 34.77233894 120.35216436 36.91207317 119.56030273 39.05200195 C118.30215224 42.45116549 117.04332193 45.85006793 115.78218079 49.24812317 C112.74128461 57.44263498 109.72296165 65.64515663 106.71723747 73.85261154 C105.28463789 77.76367415 103.84998714 81.67398497 102.41554356 85.58437157 C101.25073082 88.76015487 100.08694283 91.93630605 98.92538452 95.11328125 C97.62152485 98.67700201 96.31322558 102.23906341 95.00390625 105.80078125 C94.61713715 106.86117111 94.23036804 107.92156097 93.83187866 109.01408386 C88.91500834 122.35614027 88.91500834 122.35614027 84.75 125.1328125 C80.32374056 125.56490301 75.8885402 125.54684523 71.44384766 125.55834961 C69.25700744 125.57027429 67.07296568 125.61948516 64.88671875 125.66992188 C63.49740959 125.67938351 62.10808313 125.6866198 60.71875 125.69140625 C58.82286133 125.71158813 58.82286133 125.71158813 56.88867188 125.73217773 C53.75 125.1328125 53.75 125.1328125 51.86010742 123.18896484 C50.33763336 118.99755725 50.16334684 115.10782761 50.01953125 110.67578125 C49.979384 109.77281815 49.93923676 108.86985504 49.89787292 107.93952942 C49.77311889 105.06682966 49.66755406 102.19379344 49.5625 99.3203125 C49.481084 97.36778533 49.39841583 95.41530994 49.31445312 93.46289062 C49.11178882 88.68667628 48.92632574 83.91006877 48.75 79.1328125 C46.71210654 81.17070596 46.13320573 82.33552372 45.11767578 84.96826172 C44.81040558 85.75602997 44.50313538 86.54379822 44.18655396 87.35543823 C43.85944427 88.20751862 43.53233459 89.059599 43.1953125 89.9375 C42.49117495 91.73579048 41.78673849 93.53396394 41.08203125 95.33203125 C39.97654222 98.17015703 38.87435912 101.0094733 37.77783203 103.85107422 C36.71781039 106.59188522 35.64490537 109.32737533 34.5703125 112.0625 C34.24725128 112.91053192 33.92419006 113.75856384 33.59133911 114.6322937 C30.40369748 122.70443792 30.40369748 122.70443792 26.75 125.1328125 C23.49780273 125.63452148 23.49780273 125.63452148 19.68359375 125.62890625 C19.00829117 125.63036148 18.33298859 125.63181671 17.63722229 125.63331604 C16.21424022 125.6316607 14.79123958 125.62014002 13.3684082 125.59936523 C11.19079657 125.57035641 9.01561324 125.57877134 6.83789062 125.59179688 C5.45311318 125.58556045 4.0683434 125.57717024 2.68359375 125.56640625 C1.42603271 125.55665771 0.16847168 125.54690918 -1.12719727 125.53686523 C-4.25 125.1328125 -4.25 125.1328125 -6.15356445 124.04711914 C-7.85500631 121.07651001 -7.67494545 118.47787716 -7.7265625 115.0703125 C-7.74187012 114.32338135 -7.75717773 113.5764502 -7.77294922 112.80688477 C-7.82138339 110.24889057 -7.84821481 107.69111903 -7.875 105.1328125 C-7.90430942 103.29946081 -7.93478651 101.46612748 -7.96630859 99.6328125 C-8.0361863 95.36987587 -8.09517783 91.10692587 -8.1484375 86.84375 C-8.23106556 80.33506869 -8.3326722 73.8268163 -8.43888283 67.31848145 C-8.57807617 58.78220475 -8.7083926 50.24580683 -8.83605194 41.70935059 C-8.87507035 39.12815874 -8.91537472 36.54698934 -8.95587158 33.96582031 C-9.01979242 29.85714786 -9.07810015 25.7484302 -9.13226318 21.63961792 C-9.15333031 20.1030725 -9.17619549 18.56655061 -9.20092773 17.03005981 C-9.23468399 14.91200006 -9.26196988 12.79395273 -9.28759766 10.67578125 C-9.30456696 9.47977295 -9.32153625 8.28376465 -9.33901978 7.05151367 C-9.25 4.1328125 -9.25 4.1328125 -8.25 1.1328125 C-5.4522735 -0.26605075 -3.12611108 0.00306653 0 0 Z " fill="#2092D0" transform="translate(604.25,2.8671875)"/>
<path d="M0 0 C1.4282618 0.00031703 2.85654759 0.01163717 4.28466797 0.03173828 C5.41242142 0.03598312 5.41242142 0.03598312 6.56295776 0.04031372 C8.96775125 0.05152204 11.37217428 0.07662726 13.77685547 0.10205078 C15.40575635 0.11207976 17.03466305 0.12120576 18.66357422 0.12939453 C22.65981103 0.15146343 26.65577041 0.18599728 30.65185547 0.22705078 C34.13071657 6.09050475 35.30275481 12.46507858 36.78857422 19.06298828 C37.21502983 20.91472153 37.21502983 20.91472153 37.65010071 22.80386353 C38.40029055 26.06754248 39.14383692 29.33258863 39.88415527 32.59851074 C40.64292874 35.93821276 41.41046653 39.27589837 42.17724609 42.61376953 C43.67682804 49.14971018 45.16767741 55.68759604 46.65185547 62.22705078 C48.72615769 52.12301726 50.73220457 42.01637493 52.46826172 31.84814453 C52.61315033 31.00667877 52.75803894 30.16521301 52.90731812 29.29824829 C53.49659024 25.87238797 54.08434307 22.44642792 54.65454102 19.01733398 C55.0816088 16.45894951 55.52359357 13.90352018 55.96826172 11.34814453 C56.0933461 10.57329208 56.21843048 9.79843964 56.3473053 9.00010681 C56.85050001 6.16326009 57.35245404 3.71329401 58.87402344 1.2421875 C61.53174591 -0.275364 63.73722786 -0.14445804 66.78076172 -0.13623047 C67.98023438 -0.13558594 69.17970703 -0.13494141 70.41552734 -0.13427734 C71.66914062 -0.11816406 72.92275391 -0.10205078 74.21435547 -0.08544922 C75.47183594 -0.08867188 76.72931641 -0.09189453 78.02490234 -0.09521484 C87.38497489 -0.0398298 87.38497489 -0.0398298 89.65185547 2.22705078 C89.69261074 4.22742748 89.69261074 4.22742748 89.39097595 6.67216492 C89.2807202 7.5725115 89.17046444 8.47285809 89.0568676 9.4004879 C88.39987406 13.98561861 87.6405422 18.54561541 86.82592773 23.10522461 C86.64367645 24.14228546 86.46142517 25.17934631 86.27365112 26.24783325 C85.67569502 29.64394042 85.07224588 33.03904215 84.46826172 36.43408203 C84.0483255 38.80674751 83.62856402 41.17944393 83.20896912 43.5521698 C82.33138964 48.50927447 81.45094452 53.46585987 80.56860352 58.42211914 C79.43814276 64.77407655 78.31603067 71.12747679 77.1961832 77.48131275 C76.33263903 82.37441199 75.46411174 87.26661677 74.59412956 92.15857506 C74.17821006 94.50144523 73.76398006 96.84461599 73.35147285 99.18808937 C72.77519115 102.45828338 72.19207146 105.72718652 71.60717773 108.99584961 C71.4382753 109.9626918 71.26937286 110.929534 71.09535217 111.92567444 C69.52193728 120.64080417 69.52193728 120.64080417 67.65185547 124.22705078 C63.16029455 126.47283124 56.99327638 125.4128951 51.99389648 125.41235352 C49.7266968 125.41453889 47.45998458 125.43269571 45.19287109 125.45166016 C43.75341963 125.4545944 42.31396586 125.45657899 40.87451172 125.45751953 C39.56232666 125.46162842 38.2501416 125.4657373 36.89819336 125.4699707 C33.65185547 125.22705078 33.65185547 125.22705078 30.65185547 123.22705078 C29.67211914 120.38330078 29.67211914 120.38330078 28.81982422 116.72705078 C28.66258881 116.06705078 28.50535339 115.40705078 28.34335327 114.72705078 C27.83072848 112.56286633 27.33505673 110.39516803 26.83935547 108.22705078 C26.48942051 106.73721857 26.13841978 105.24763631 25.78637695 103.75830078 C24.72516767 99.25160802 23.68589433 94.74004476 22.65185547 90.22705078 C22.49422729 89.5401416 22.33659912 88.85323242 22.17419434 88.14550781 C21.72631787 86.19359691 21.27892325 84.24157547 20.83154297 82.28955078 C20.55673096 81.09201172 20.28191895 79.89447266 19.9987793 78.66064453 C19.48322752 76.40396223 18.97250076 74.14617119 18.46704102 71.88720703 C18.24056885 70.88560547 18.01409668 69.88400391 17.78076172 68.85205078 C17.58554932 67.97806641 17.39033691 67.10408203 17.18920898 66.20361328 C16.83141607 64.24099883 16.83141607 64.24099883 15.65185547 63.22705078 C15.53101593 63.93226868 15.41017639 64.63748657 15.28567505 65.36407471 C14.14476764 72.01562985 12.9977748 78.66610353 11.84396553 85.3154335 C11.25102018 88.73381039 10.6604209 92.15255794 10.07519531 95.57226562 C9.40201766 99.50529174 8.71861322 103.43650721 8.03466797 107.36767578 C7.82625275 108.59383606 7.61783752 109.81999634 7.40310669 111.08331299 C7.20305023 112.22419373 7.00299377 113.36507446 6.796875 114.54052734 C6.6236673 115.54424377 6.45045959 116.54796021 6.27200317 117.58209229 C5.68168481 120.09982726 5.00696514 122.0310971 3.65185547 124.22705078 C-0.69665407 126.40130555 -6.57171819 125.41201552 -11.34814453 125.41455078 C-13.16958984 125.43291992 -13.16958984 125.43291992 -15.02783203 125.45166016 C-16.76419922 125.45456055 -16.76419922 125.45456055 -18.53564453 125.45751953 C-19.60169922 125.46162842 -20.66775391 125.4657373 -21.76611328 125.4699707 C-24.34814453 125.22705078 -24.34814453 125.22705078 -26.34814453 123.22705078 C-26.81483577 117.25649658 -25.69667188 111.58362459 -24.63574219 105.72119141 C-24.45363693 104.68778122 -24.27153168 103.65437103 -24.08390808 102.58964539 C-23.48258693 99.1864521 -22.87259821 95.78487802 -22.26220703 92.38330078 C-21.84059284 90.01118314 -21.41940569 87.63898957 -20.99862671 85.26672363 C-20.11629949 80.29985645 -19.22986778 75.33374519 -18.34033203 70.36816406 C-17.20165183 64.01077875 -16.07153514 57.65190881 -14.94428444 51.2924881 C-14.07551665 46.39517714 -13.20303762 41.49853326 -12.32935715 36.60209656 C-11.91138402 34.2579586 -11.49436566 31.91365019 -11.07832718 29.56916809 C-10.49563449 26.28975267 -9.90815223 23.01123087 -9.31933594 19.73291016 C-9.14886246 18.76854538 -8.97838898 17.8041806 -8.80274963 16.81059265 C-5.83621663 0.39577669 -5.83621663 0.39577669 0 0 Z " fill="#2092D0" transform="translate(891.34814453125,2.77294921875)"/>
<path d="M0 0 C0.937229 0.00205444 1.87445801 0.00410889 2.84008789 0.00622559 C3.90549805 -0.00307983 4.9709082 -0.01238525 6.06860352 -0.02197266 C7.79820312 0.00262024 7.79820312 0.00262024 9.56274414 0.02770996 C10.75319336 0.02766968 11.94364258 0.02762939 13.17016602 0.02758789 C15.69544739 0.03295626 18.2207276 0.05059457 20.74584961 0.07946777 C24.58247976 0.12099706 28.41733537 0.12056331 32.25415039 0.11364746 C34.71119369 0.12415176 37.168228 0.13709648 39.62524414 0.15270996 C40.7621167 0.15291138 41.89898926 0.15311279 43.0703125 0.15332031 C55.2287024 0.33070688 65.50747806 2.77559459 74.43774414 11.30895996 C81.14276351 21.46227501 80.6473876 33.09194142 78.50024414 44.68395996 C76.34332675 53.85341448 72.12170429 62.01097667 66.62524414 69.62145996 C67.80086914 70.67333496 67.80086914 70.67333496 69.00024414 71.74645996 C73.90667589 77.12017093 74.00952206 82.44730766 73.87915039 89.46130371 C73.47973982 94.43242908 72.29156613 98.93402376 70.62524414 103.62145996 C70.37000977 104.3420459 70.11477539 105.06263184 69.85180664 105.80505371 C66.65196356 113.33495968 60.28033045 118.74015165 52.87524414 121.99645996 C42.5382179 125.48638368 31.81284625 125.93066796 20.99243164 125.92224121 C19.75276642 125.92652634 18.5131012 125.93081146 17.23587036 125.93522644 C14.64268603 125.94092379 12.04948573 125.94150433 9.45629883 125.93713379 C6.80054456 125.93500315 4.1460463 125.93962378 1.49047852 125.9576416 C-2.36317875 125.98202285 -6.21634394 125.98630296 -10.07006836 125.98474121 C-11.26060822 125.99395096 -12.45114807 126.00316071 -13.67776489 126.01264954 C-14.77676117 126.00642075 -15.87575745 126.00019196 -17.00805664 125.99377441 C-17.97478302 125.99440384 -18.9415094 125.99503326 -19.93753052 125.99568176 C-22.85855086 125.54717605 -23.59142376 124.92829922 -25.37475586 122.62145996 C-25.51260948 120.74141312 -25.51260948 120.74141312 -25.17538452 118.61248779 C-25.05610973 117.81247597 -24.93683495 117.01246414 -24.81394577 116.18820953 C-24.6690131 115.34118217 -24.52408043 114.49415482 -24.37475586 113.62145996 C-24.24310658 112.78669884 -24.11145729 111.95193771 -23.97581863 111.0918808 C-23.5274704 108.31210639 -23.04913455 105.53872168 -22.56469727 102.76501465 C-22.29372978 101.19501205 -22.29372978 101.19501205 -22.01728821 99.59329224 C-21.4235191 96.15940548 -20.82537716 92.72630263 -20.22631836 89.29333496 C-19.91888262 87.52780148 -19.91888262 87.52780148 -19.60523605 85.72660065 C-18.52222373 79.50868961 -17.43572545 73.29139919 -16.34643555 67.07458496 C-15.22229183 60.6546633 -14.1103964 54.23268265 -13.00121498 47.81016159 C-12.14502362 42.86590841 -11.27971472 37.92328247 -10.4119072 32.98105621 C-9.99781991 30.61337202 -9.58719567 28.24507946 -9.1801033 25.87618256 C-8.61092582 22.5691211 -8.02886825 19.26457393 -7.44360352 15.96032715 C-7.27829636 14.98256317 -7.1129892 14.00479919 -6.94267273 12.99740601 C-4.82958997 1.26387594 -4.82958997 1.26387594 0 0 Z M21.62524414 34.62145996 C20.44864746 37.81183171 20.44864746 37.81183171 19.81274414 41.43395996 C19.55879883 42.63665527 19.30485352 43.83935059 19.04321289 45.07849121 C18.63221331 48.56238484 18.85898822 51.21761561 19.62524414 54.62145996 C22.85410423 54.73813871 26.08241859 54.80886542 29.31274414 54.87145996 C30.22475586 54.90497559 31.13676758 54.93849121 32.07641602 54.97302246 C36.30564093 55.03453846 38.91343002 55.02374975 42.65258789 52.91052246 C46.52216895 48.42027593 47.62524414 43.02134917 47.62524414 37.18395996 C46.27544143 33.72509051 44.97763047 33.17522202 41.62524414 31.62145996 C38.84032759 31.33307266 36.33630615 31.2007 33.56274414 31.24645996 C32.50216797 31.22905762 32.50216797 31.22905762 31.42016602 31.21130371 C27.24456689 31.23482821 24.40074393 31.35656045 21.62524414 34.62145996 Z M12.62524414 84.62145996 C10.96723749 89.13868217 9.893269 94.00285958 11.62524414 98.62145996 C14.83342389 100.22554984 18.29196744 99.84765082 21.81274414 99.87145996 C22.55588867 99.89208496 23.2990332 99.91270996 24.06469727 99.93395996 C29.32306488 99.97082845 33.01520358 99.22229606 37.62524414 96.62145996 C39.77198854 93.78259579 39.85302191 91.36590414 39.75024414 87.87145996 C39.72317383 86.67263184 39.72317383 86.67263184 39.69555664 85.44958496 C39.67235352 84.84630371 39.64915039 84.24302246 39.62524414 83.62145996 C35.0092019 80.97081362 30.76453563 81.29047456 25.56274414 81.30895996 C24.65202148 81.29284668 23.74129883 81.2767334 22.80297852 81.26013184 C21.49103516 81.25916504 21.49103516 81.25916504 20.15258789 81.25817871 C19.3558667 81.25519775 18.55914551 81.2522168 17.73828125 81.24914551 C15.11184191 81.71192078 14.25411921 82.55117578 12.62524414 84.62145996 Z " fill="#2092D0" transform="translate(399.374755859375,2.3785400390625)"/>
<path d="M0 0 C1.02221649 -0.00960754 2.04443298 -0.01921509 3.09762573 -0.02911377 C4.20896881 -0.03336365 5.32031189 -0.03761353 6.46533203 -0.04199219 C7.61043243 -0.04769226 8.75553284 -0.05339233 9.93533325 -0.05926514 C12.36817498 -0.0687304 14.80102962 -0.07525515 17.23388672 -0.07910156 C20.92324979 -0.08873688 24.61203899 -0.11971695 28.30126953 -0.15136719 C30.66845373 -0.15790432 33.03564192 -0.16315199 35.40283203 -0.16699219 C37.03948318 -0.18551239 37.03948318 -0.18551239 38.709198 -0.20440674 C49.9258065 -0.17246128 60.42859152 1.59598146 69.09814453 9.16113281 C76.67638725 18.48820077 75.96347149 29.76910341 75.09814453 41.16113281 C73.19910792 55.48303393 67.64290235 69.01768462 56.09814453 78.16113281 C55.43814453 78.16113281 54.77814453 78.16113281 54.09814453 78.16113281 C55.13428492 81.32963349 56.17760762 84.49572091 57.22314453 87.66113281 C57.53574219 88.61133301 57.84833984 89.5615332 58.17041016 90.54052734 C59.66110241 95.02690873 61.18491442 99.47920964 62.93408203 103.87207031 C63.21493652 104.58041016 63.49579102 105.28875 63.78515625 106.01855469 C64.55267812 107.92329965 65.34041809 109.81986162 66.12939453 111.71582031 C67.2523527 115.70956669 67.21273243 118.17359853 66.09814453 122.16113281 C63.7907557 124.49799064 62.45090951 125.12016485 59.16552734 125.50170898 C58.05532227 125.48599854 56.94511719 125.47028809 55.80126953 125.45410156 C54.59599609 125.44443359 53.39072266 125.43476563 52.14892578 125.42480469 C50.89466797 125.39966797 49.64041016 125.37453125 48.34814453 125.34863281 C47.07841797 125.33509766 45.80869141 125.3215625 44.50048828 125.30761719 C41.36594609 125.27226521 38.23225908 125.2229153 35.09814453 125.16113281 C31.42298879 117.33854664 28.61921221 109.2726818 25.84814453 101.09863281 C25.38497988 99.74238421 24.92144092 98.38626338 24.45751953 97.03027344 C23.33341364 93.74201999 22.2143659 90.45207232 21.09814453 87.16113281 C19.66106363 87.10690334 18.22338991 87.06823558 16.78564453 87.03613281 C15.98513672 87.01292969 15.18462891 86.98972656 14.35986328 86.96582031 C11.81425877 87.00295959 11.81425877 87.00295959 9.09814453 89.16113281 C8.45992411 91.55177741 8.00422833 93.78243283 7.63330078 96.21582031 C7.38795996 97.6494315 7.14251395 99.08302469 6.89697266 100.51660156 C6.52611289 102.77612177 6.16060019 105.03640975 5.79858398 107.29736328 C5.44434761 109.480986 5.07085682 111.66069237 4.69580078 113.84082031 C4.54402122 114.85038284 4.54402122 114.85038284 4.38917542 115.88034058 C3.85820293 118.93635144 3.1773681 121.04954905 1.3737793 123.58984375 C-1.56096765 125.61623913 -3.36049729 125.64970086 -6.90966797 125.62207031 C-8.63636719 125.61626953 -8.63636719 125.61626953 -10.39794922 125.61035156 C-11.59548828 125.58585937 -12.79302734 125.56136719 -14.02685547 125.53613281 C-15.83476563 125.53419922 -15.83476563 125.53419922 -17.67919922 125.53222656 C-26.62108379 125.4419045 -26.62108379 125.4419045 -28.90185547 123.16113281 C-29.32768082 116.78151473 -28.33338323 110.80830454 -27.20532227 104.54174805 C-26.93457382 102.99141373 -26.93457382 102.99141373 -26.65835571 101.40975952 C-26.06291413 98.01180968 -25.45741386 94.61574736 -24.85107422 91.21972656 C-24.43192126 88.84902618 -24.0131289 86.47826203 -23.59468079 84.10743713 C-22.71735628 79.14640186 -21.83490641 74.18631181 -20.94897461 69.22680664 C-19.81539921 62.87797037 -18.69577546 56.52676568 -17.58012676 50.17475796 C-16.71883558 45.28116098 -15.84956186 40.38900751 -14.97794533 35.49724007 C-14.5619192 33.15618818 -14.14850227 30.81467102 -13.73776817 28.47268486 C-13.16222253 25.19730966 -12.57580006 21.92406065 -11.98657227 18.65112305 C-11.81969406 17.68832932 -11.65281586 16.72553558 -11.48088074 15.73356628 C-10.52488743 10.49650298 -9.34404832 5.91066525 -6.90185547 1.16113281 C-4.42942467 -0.07508259 -2.7656496 0.02096103 0 0 Z M18.09814453 34.16113281 C16.80415598 37.33827101 16.80415598 37.33827101 16.22314453 40.97363281 C15.97822266 42.17632812 15.73330078 43.37902344 15.48095703 44.61816406 C15.10609746 48.08752762 15.34059888 50.77293205 16.09814453 54.16113281 C22.83529489 56.4068496 31.61615386 56.13204521 38.09814453 53.16113281 C42.93348689 47.30782364 43.56460787 42.50793037 43.09814453 35.16113281 C41.5871059 32.69575399 40.64600227 32.29594597 37.85986328 31.61035156 C34.90629325 31.12992645 32.09001141 30.95692669 29.09814453 30.91113281 C28.08751953 30.88535156 27.07689453 30.85957031 26.03564453 30.83300781 C22.51851318 31.22587887 20.7979326 31.86113914 18.09814453 34.16113281 Z " fill="#69C1ED" transform="translate(699.90185546875,149.8388671875)"/>
<path d="M0 0 C1.66772461 -0.03673828 1.66772461 -0.03673828 3.36914062 -0.07421875 C14.40678572 -0.11296999 24.05502599 2.64626584 32.1875 10.375 C38.74164994 18.65392624 39.54165778 28.45235921 39.08203125 38.734375 C38.75 40.5625 38.75 40.5625 37.1875 43.375 C34.31872898 44.91972286 32.30149075 45.63379562 29.1875 46.375 C28.07890625 46.65214844 26.9703125 46.92929687 25.828125 47.21484375 C19.53424509 48.68026429 13.65278001 49.88208079 7.1875 49.375 C4.87793177 47.06543177 5.39834674 41.6161278 5.078125 38.4765625 C4.46603898 35.23940587 4.46603898 35.23940587 1.88671875 33.484375 C-3.24184096 31.37654438 -7.88097015 31.79189665 -13.125 33.375 C-19.12026802 37.83659481 -20.55890902 45.34203314 -21.8125 52.375 C-21.97129639 53.22368652 -22.13009277 54.07237305 -22.29370117 54.94677734 C-22.63237554 56.77942797 -22.96443815 58.61331045 -23.29052734 60.44824219 C-23.83900137 63.5235961 -24.41400989 66.59343025 -24.98828125 69.6640625 C-25.36904843 71.77570695 -25.74798799 73.88768187 -26.125 76 C-26.30869141 76.98226562 -26.49238281 77.96453125 -26.68164062 78.9765625 C-27.77578224 85.34247735 -27.80564862 90.99059769 -26.8125 97.375 C-20.39596321 99.04210021 -14.98664689 100.0851009 -8.69140625 97.5625 C-4.31483193 94.79643224 -2.92564857 90.24502497 -1.8125 85.375 C-3.20275391 85.19324219 -3.20275391 85.19324219 -4.62109375 85.0078125 C-5.81863281 84.84023437 -7.01617188 84.67265625 -8.25 84.5 C-9.44496094 84.33757812 -10.63992188 84.17515625 -11.87109375 84.0078125 C-12.84175781 83.79898438 -13.81242187 83.59015625 -14.8125 83.375 C-17.54064567 77.91870866 -14.68076592 69.05078785 -13.5078125 63.25 C-12.65028971 60.93757899 -11.72218282 59.93183936 -9.8125 58.375 C-7.82601929 58.00750732 -7.82601929 58.00750732 -5.54052734 58.01855469 C-4.68308929 58.01555359 -3.82565125 58.01255249 -2.94223022 58.00946045 C-2.02027863 58.02180725 -1.09832703 58.03415405 -0.1484375 58.046875 C0.79937592 58.04874817 1.74718933 58.05062134 2.72372437 58.05255127 C4.72600831 58.05927249 6.7282791 58.07318836 8.73046875 58.09375 C11.80741471 58.12494844 14.88384896 58.13472454 17.9609375 58.140625 C19.90365213 58.149793 21.84636151 58.16016812 23.7890625 58.171875 C25.17806259 58.17824982 25.17806259 58.17824982 26.59512329 58.18475342 C27.44625702 58.19436096 28.29739075 58.20396851 29.17431641 58.21386719 C29.92693756 58.22069519 30.67955872 58.22752319 31.45498657 58.23455811 C33.1875 58.375 33.1875 58.375 34.1875 59.375 C34.41651694 68.01221018 32.51671507 76.63213824 30.875 85.0625 C30.57408447 86.64708008 30.57408447 86.64708008 30.26708984 88.26367188 C27.18682991 103.52420056 20.95371075 115.04976153 8.1875 124.375 C-5.60095788 132.32910308 -23.62844364 133.98665233 -39.0625 130.1875 C-46.74200916 127.60362759 -53.47598789 123.37226291 -57.8125 116.375 C-60.34889117 110.53855159 -61.33865889 105.80925724 -61.265625 99.46875 C-61.25960266 98.61341675 -61.25358032 97.7580835 -61.24737549 96.87683105 C-60.99733642 86.4838421 -59.12592752 76.35267485 -57.18701172 66.16308594 C-56.55857907 62.8543561 -55.95900132 59.54132267 -55.36328125 56.2265625 C-48.94267563 21.10842828 -48.94267563 21.10842828 -35.11328125 9.9375 C-23.81661898 2.26574294 -13.40287302 0.01537909 0 0 Z " fill="#2092D0" transform="translate(1041.8125,-0.375)"/>
<path d="M0 0 C6.03468459 4.93658578 9.80934688 10.5786953 11.36328125 18.234375 C12.34865841 31.99919995 10.26977999 45.15642412 7.79272461 58.66772461 C7.17418413 62.05562284 6.58655209 65.44789548 6.00195312 68.84179688 C3.42359682 83.45025397 0.79517802 97.31546068 -8.63671875 109.234375 C-9.11367188 109.84796875 -9.590625 110.4615625 -10.08203125 111.09375 C-17.71853441 119.76636162 -29.97552294 124.53235065 -41.31445312 125.45141602 C-55.31354404 126.04362912 -68.74040041 126.2188214 -80.0234375 116.78125 C-86.52708632 110.54530585 -88.31967992 102.16105775 -88.8828125 93.41015625 C-88.76582509 85.95181876 -87.22141095 78.56560391 -85.94921875 71.234375 C-85.81289032 70.44013123 -85.67656189 69.64588745 -85.53610229 68.82757568 C-84.71178672 64.02711779 -83.87117151 59.22971314 -83.02270508 54.43347168 C-82.66645358 52.40378454 -82.32007987 50.37237026 -81.97460938 48.34082031 C-79.02893445 31.08145317 -75.69910028 14.77802107 -61.2421875 3.33984375 C-45.07450058 -7.9041552 -17.07207145 -11.43196488 0 0 Z M-42.63671875 28.234375 C-47.64124074 34.08213614 -48.96625514 40.70922997 -50.26171875 48.109375 C-50.46627686 49.20693115 -50.67083496 50.3044873 -50.8815918 51.43530273 C-51.48405678 54.69879348 -52.06225187 57.96585656 -52.63671875 61.234375 C-52.96298885 63.01963237 -53.289765 64.80479737 -53.6171875 66.58984375 C-53.89652858 68.1584998 -54.17401186 69.72748836 -54.44921875 71.296875 C-54.63508545 72.33787354 -54.63508545 72.33787354 -54.82470703 73.39990234 C-55.75129728 78.97445488 -56.64760933 84.7869557 -54.44921875 90.109375 C-51.4242238 93.65592081 -48.75558314 94.13266006 -44.19921875 94.546875 C-39.14910609 94.10388266 -36.07871898 92.63517523 -32.44921875 89.109375 C-27.50978677 81.27441393 -26.41727176 71.72270792 -24.84692383 62.74316406 C-24.4520873 60.50066711 -24.03821489 58.2622476 -23.62304688 56.0234375 C-21.10202577 43.16510839 -21.10202577 43.16510839 -21.63671875 30.234375 C-23.66486167 27.74368702 -24.88930255 26.46348248 -27.96875 25.51953125 C-33.63861848 25.01058243 -37.68353153 25.0293715 -42.63671875 28.234375 Z " fill="#69C1ED" transform="translate(554.63671875,152.765625)"/>
<path d="M0 0 C1.57587891 -0.0299707 1.57587891 -0.0299707 3.18359375 -0.06054688 C12.7426891 -0.05463891 22.02701908 2.18105085 29.5 8.4375 C36.9679166 16.18132485 38.67861277 24.90316094 38.62759399 35.35862732 C38.41621483 40.4592556 37.56167706 45.40956446 36.671875 50.4296875 C36.48159729 51.53748566 36.29131958 52.64528381 36.09527588 53.78665161 C35.69287102 56.11522594 35.28588238 58.44301239 34.87451172 60.77001953 C34.25330797 64.29373588 33.65104305 67.82031929 33.05078125 71.34765625 C26.33525303 110.21943599 26.33525303 110.21943599 12.50390625 120.9921875 C-2.40876953 131.38195468 -19.60159493 133.88606786 -37.40234375 130.75 C-46.80356645 128.11721885 -53.46453514 124.00051795 -58.4921875 115.5625 C-65.52405178 100.73562338 -60.74886206 82.38289954 -57.92944336 67.00415039 C-57.31090288 63.61625216 -56.72327084 60.22397952 -56.13867188 56.83007812 C-52.86490137 38.28193772 -48.79939854 20.9006464 -33.5 8.4375 C-23.19981401 1.83921114 -12.04338498 -0.08127438 0 0 Z M-17.5 35.4375 C-21.61317812 42.07861664 -22.79474853 49.74231891 -24.125 57.3125 C-24.32867188 58.41980469 -24.53234375 59.52710938 -24.7421875 60.66796875 C-25.14517079 62.86629425 -25.54200477 65.06575679 -25.93237305 67.26635742 C-26.30152677 69.32869623 -26.68257111 71.38895408 -27.07739258 73.4465332 C-28.06706926 78.6277817 -28.83566038 83.59731155 -28.9375 88.875 C-28.97746094 90.02871094 -29.01742187 91.18242188 -29.05859375 92.37109375 C-28.76641409 95.61016541 -28.76641409 95.61016541 -26.17578125 97.7890625 C-22.16278679 100.26130142 -18.8591484 100.85264625 -14.19140625 100.03125 C-10.06000474 98.89155303 -8.09677831 98.19052572 -5.3515625 94.7265625 C0.28189436 84.71945137 1.28252537 71.58931068 3.25 60.4375 C3.47292725 59.18509521 3.69585449 57.93269043 3.92553711 56.64233398 C6.11795793 45.97747447 6.11795793 45.97747447 4.25 35.5625 C1.97581075 32.80098448 -0.07240026 31.66443822 -3.61328125 31.1015625 C-9.17189783 31.00283041 -13.30672549 31.60656007 -17.5 35.4375 Z " fill="#2092D0" transform="translate(543.5,-0.4375)"/>
<path d="M0 0 C5.98905181 5.35933048 9.82656989 11.95704202 10.34765625 20.02734375 C10.39239664 21.47618127 10.42225119 22.92555206 10.4375 24.375 C10.44765137 25.0774585 10.45780273 25.77991699 10.46826172 26.50366211 C10.4201221 29.30830336 10.33309592 31.46771051 8.82421875 33.87890625 C6.40229995 35.36732316 4.14728097 35.93569229 1.375 36.5625 C0.30636719 36.80742187 -0.76226563 37.05234375 -1.86328125 37.3046875 C-2.89839844 37.53414062 -3.93351563 37.76359375 -5 38 C-5.83917969 38.20882812 -6.67835938 38.41765625 -7.54296875 38.6328125 C-12.15345336 39.75964351 -16.25469025 40.20192807 -21 40 C-22.22638661 37.10923157 -23.12244289 34.45371633 -23.8125 31.375 C-24.72574798 27.97711605 -24.72574798 27.97711605 -27 26.0625 C-32.3973341 24.15094417 -37.74742835 24.080583 -43.0625 26.25 C-45.04657142 27.87114813 -45.04657142 27.87114813 -46.125 29.875 C-45.96289928 32.6307123 -44.90125529 33.84576369 -42.8828125 35.66015625 C-38.03834644 39.10756675 -32.4242888 41.41995363 -27.04443359 43.90234375 C-14.79553295 49.57514712 -3.01996998 55.95007505 2.25 69.125 C4.29614853 79.69676743 3.34655203 89.27575491 -2.578125 98.44140625 C-4.29500517 100.72671296 -6.09562829 102.86920618 -8 105 C-8.80244141 105.94166016 -8.80244141 105.94166016 -9.62109375 106.90234375 C-17.92747143 116.00549626 -31.53386741 121.89536094 -43.765625 122.90625 C-44.87164063 122.95265625 -44.87164063 122.95265625 -46 123 C-47.02609375 123.0515625 -48.0521875 123.103125 -49.109375 123.15625 C-62.79298403 123.52114624 -74.02339867 121.49258248 -84.6875 112.8125 C-90.59752994 105.62462575 -93.12759739 98.18674014 -93.3125 89 C-93.34988281 87.783125 -93.38726563 86.56625 -93.42578125 85.3125 C-93 82 -93 82 -91.3359375 79.6640625 C-88.64501646 77.74711875 -86.5349956 77.07426048 -83.3125 76.375 C-81.72501953 76.02115234 -81.72501953 76.02115234 -80.10546875 75.66015625 C-79.08066406 75.44230469 -78.05585937 75.22445312 -77 75 C-76.15050781 74.79246094 -75.30101562 74.58492188 -74.42578125 74.37109375 C-70.23044938 73.3525327 -66.34676869 72.57592501 -62 73 C-59.59425816 75.40574184 -59.79208076 76.03747085 -59.6875 79.3125 C-59.35929777 83.0868256 -59.08547232 83.89480329 -56.5625 87 C-51.86008228 90.67017968 -47.82313429 90.50985968 -42 90 C-38.5969415 88.84237864 -38.5969415 88.84237864 -36 87 C-35.360625 86.5875 -34.72125 86.175 -34.0625 85.75 C-32.29689005 82.84193655 -33.33771847 80.19099281 -34 77 C-34.71244873 76.71930664 -35.42489746 76.43861328 -36.15893555 76.14941406 C-41.1025846 74.14935393 -45.95127115 71.94122461 -50.8125 69.75 C-51.86759766 69.28464844 -52.92269531 68.81929688 -54.00976562 68.33984375 C-61.99528626 64.7277017 -69.06035985 60.67709874 -74.875 54 C-75.70644531 53.071875 -75.70644531 53.071875 -76.5546875 52.125 C-81.31315602 45.12876521 -80.94376193 36.11867331 -80 28 C-76.99911731 15.5945653 -69.62186217 5.3562365 -58.79296875 -1.37109375 C-41.59122746 -10.73617746 -16.34565724 -11.95865181 0 0 Z " fill="#69C1ED" transform="translate(866,155)"/>
<path d="M0 0 C1.20269531 -0.00257813 2.40539062 -0.00515625 3.64453125 -0.0078125 C4.90652344 -0.00007812 6.16851563 0.00765625 7.46875 0.015625 C8.73074219 0.00789062 9.99273438 0.00015625 11.29296875 -0.0078125 C13.09701172 -0.00394531 13.09701172 -0.00394531 14.9375 0 C16.04544922 0.00225586 17.15339844 0.00451172 18.29492188 0.00683594 C20.96875 0.265625 20.96875 0.265625 22.96875 2.265625 C23.25873734 10.46222102 21.09079671 18.9219977 19.64066887 26.96265221 C19.2368132 29.2038461 18.83925579 31.446081 18.44325256 33.68867493 C17.31769237 40.0561134 16.18063445 46.42148512 15.04077148 52.78637695 C14.34009149 56.70136943 13.64611782 60.61750578 12.95599556 64.53437233 C12.69350652 66.01588398 12.42840249 67.49693497 12.16053581 68.97748375 C9.60229354 80.80190256 9.60229354 80.80190256 10.65625 92.640625 C12.62213954 95.07458348 13.88486735 95.55890189 16.96875 96.265625 C21.61609308 96.33441791 25.62930456 95.90622934 29.84375 93.890625 C36.53649396 85.62311776 37.41067856 73.59741482 39.1328125 63.3984375 C39.41273324 61.78927897 39.69370761 60.18030341 39.97567749 58.57150269 C40.70998047 54.36967999 41.43325399 50.16604544 42.15313721 45.96173096 C43.30969667 39.21286446 44.47915843 32.46626365 45.65638351 25.72097397 C46.06356593 23.37481088 46.46347859 21.02749089 46.86270142 18.67996216 C47.11214557 17.23988399 47.36183727 15.79984868 47.61181641 14.35986328 C47.82625397 13.10730743 48.04069153 11.85475159 48.2616272 10.5642395 C49.15097808 6.41556022 49.94033231 3.29404269 52.96875 0.265625 C55.65844727 0.02270508 55.65844727 0.02270508 59.03515625 0.03515625 C60.24236328 0.03708984 61.44957031 0.03902344 62.69335938 0.04101562 C63.95986328 0.05326172 65.22636719 0.06550781 66.53125 0.078125 C68.43680664 0.0790918 68.43680664 0.0790918 70.38085938 0.08007812 C79.82864947 0.12552447 79.82864947 0.12552447 80.96875 1.265625 C81.55044223 10.72411599 79.73145676 19.79913352 78.08203125 29.06640625 C77.77975975 30.79210611 77.47786125 32.51787133 77.17631531 34.24369812 C76.54404221 37.84964161 75.90517689 41.45434234 75.26196289 45.05834961 C74.4448656 49.64139812 73.6474886 54.22762618 72.85552692 58.81507587 C72.23754272 62.37812512 71.60729599 65.9389273 70.97368431 69.49922752 C70.67501203 71.18752427 70.38038083 72.87654179 70.0901432 74.56630898 C67.73726218 88.21248516 64.76501879 101.14994205 55.96875 112.265625 C55.49179687 112.87921875 55.01484375 113.4928125 54.5234375 114.125 C46.89966493 122.78315378 34.59812769 127.62580718 23.25878906 128.46655273 C20.34655597 128.56863564 17.44516306 128.58774187 14.53125 128.578125 C13.07235352 128.60229492 13.07235352 128.60229492 11.58398438 128.62695312 C0.3678634 128.63444552 -9.49692074 125.76736409 -17.59765625 117.70703125 C-23.8878734 109.87711916 -24.5867396 99.91181706 -24.03125 90.265625 C-23.29468576 84.04595804 -22.13236344 77.88327686 -21.0390625 71.71875 C-20.7292717 69.93532222 -20.42019198 68.15177079 -20.11178589 66.36810303 C-19.46675165 62.64884504 -18.81565454 58.93072052 -18.15966797 55.21337891 C-17.32130759 50.46175219 -16.4944468 45.70821727 -15.67163277 40.9538765 C-15.03484452 37.27807826 -14.39391658 33.6030121 -13.75155258 29.92818451 C-13.44535218 28.17573093 -13.13997393 26.42313348 -12.83545303 24.67038727 C-12.40868398 22.21998416 -11.9768201 19.77053349 -11.54345703 17.32128906 C-11.35787735 16.24884697 -11.35787735 16.24884697 -11.16854858 15.15473938 C-8.46624974 0.01723786 -8.46624974 0.01723786 0 0 Z " fill="#69C1ED" transform="translate(594.03125,149.734375)"/>
<path d="M0 0 C1.2408989 -0.00835373 1.2408989 -0.00835373 2.50686646 -0.01687622 C3.86288971 -0.00305405 3.86288971 -0.00305405 5.24630737 0.01104736 C6.67832993 0.0079808 6.67832993 0.0079808 8.13928223 0.00485229 C11.29998829 0.00184011 14.46017491 0.02033253 17.62081909 0.03936768 C19.81131867 0.0424242 22.00182019 0.04430113 24.19232178 0.04504395 C28.78396027 0.04964953 33.37542363 0.06408711 37.9670105 0.08624268 C43.86668971 0.11455853 49.76623104 0.12545715 55.66597176 0.12992477 C60.18853142 0.13407161 64.71106291 0.14388236 69.23360825 0.15579987 C71.40982715 0.16151545 73.58604879 0.16626986 75.76227188 0.17006683 C78.79606188 0.17690474 81.82974021 0.19052443 84.86349487 0.20635986 C85.77155884 0.20747772 86.6796228 0.20859558 87.61520386 0.20974731 C93.81081956 0.25280565 93.81081956 0.25280565 94.92550659 1.36749268 C95.22648931 7.96948313 94.47340924 13.87165623 93.05050659 20.30499268 C92.87648315 21.15384033 92.70245972 22.00268799 92.52316284 22.8772583 C91.18476761 29.10823166 91.18476761 29.10823166 88.92550659 31.36749268 C86.00802612 31.62286377 86.00802612 31.62286377 82.30831909 31.64093018 C80.9658629 31.66122309 79.62341504 31.68207395 78.28097534 31.70343018 C76.1655067 31.7260135 74.0503675 31.74249306 71.93478394 31.74835205 C69.89202353 31.75789097 67.85074622 31.79168425 65.80831909 31.82843018 C64.58515991 31.83664795 63.36200073 31.84486572 62.10177612 31.85333252 C58.18004458 32.4881647 57.33712342 33.24991766 54.92550659 36.36749268 C54.14027602 39.12602493 53.57751805 41.65676879 53.12619019 44.46905518 C52.98251511 45.28251404 52.83884003 46.0959729 52.69081116 46.93408203 C52.220389 49.61788274 51.77237483 52.30493811 51.32394409 54.99249268 C50.99972118 56.86076757 50.67390276 58.72876622 50.34655762 60.59649658 C49.48870689 65.51145185 48.64893834 70.42931319 47.81399536 75.34820557 C46.47488821 83.22208558 45.11077966 91.09164061 43.74223709 98.96044922 C43.26720361 101.70916603 42.8012735 104.4593122 42.33648682 107.20977783 C42.04658025 108.895204 41.75644178 110.58059031 41.46603394 112.26593018 C41.33924759 113.03072693 41.21246124 113.79552368 41.08183289 114.58349609 C39.89556401 121.38736369 39.89556401 121.38736369 37.92550659 124.36749268 C33.57699705 126.54174745 27.70193294 125.55245742 22.92550659 125.55499268 C21.71120972 125.56723877 20.49691284 125.57948486 19.24581909 125.59210205 C17.5094519 125.59500244 17.5094519 125.59500244 15.73800659 125.59796143 C14.13892456 125.60412476 14.13892456 125.60412476 12.50753784 125.6104126 C9.92550659 125.36749268 9.92550659 125.36749268 7.92550659 123.36749268 C7.58897558 118.24377305 8.28127984 113.40543032 9.21066284 108.38433838 C9.34721283 107.61920929 9.48376282 106.8540802 9.62445068 106.06576538 C10.07344803 103.55724082 10.53080555 101.05031498 10.98800659 98.54327393 C11.30251708 96.79177406 11.61639078 95.04015973 11.92965698 93.28843689 C12.75313888 88.69089581 13.58324686 84.09457939 14.41537476 79.49859619 C15.74854109 72.13252522 17.0744178 64.76515467 18.3949585 57.39681053 C18.85713529 54.82593325 19.32386158 52.25591077 19.79098511 49.68592834 C20.07427656 48.11147055 20.35740703 46.53698378 20.64035034 44.96246338 C20.77126068 44.24913345 20.90217102 43.53580353 21.03704834 42.80085754 C21.6134297 39.57101293 21.92550659 36.66605557 21.92550659 33.36749268 C18.56221878 32.24639674 15.86784098 32.17624033 12.32394409 32.08624268 C11.02972534 32.04885986 9.73550659 32.01147705 8.40206909 31.97296143 C6.34350394 31.91920397 4.28490177 31.86709962 2.22628784 31.81524658 C0.23790161 31.76364322 -1.75033271 31.70628606 -3.73855591 31.64874268 C-4.92916626 31.61844971 -6.11977661 31.58815674 -7.34646606 31.5569458 C-10.07449341 31.36749268 -10.07449341 31.36749268 -11.07449341 30.36749268 C-10.9335877 8.28052217 -10.9335877 8.28052217 -5.77202034 1.70930862 C-3.67833387 0.05434702 -2.64485129 -0.0053976 0 0 Z " fill="#69C1ED" transform="translate(380.0744934082031,149.63250732421875)"/>
<path d="M0 0 C9.74440654 6.26322095 16.71443687 15.54917451 19.61328125 26.8046875 C21.83418964 38.48946679 20.35905762 49.9604193 14.23828125 60.2421875 C7.49871673 70.04775936 -1.54214924 76.8448062 -13.13671875 79.8046875 C-26.82764207 82.29830576 -39.12092682 78.97569353 -50.5 71.22265625 C-57.97467005 65.47163517 -64.15451406 55.8618386 -65.63671875 46.4921875 C-66.81597079 33.40248981 -65.99898037 20.80371518 -57.2578125 10.296875 C-56.72285156 9.70132812 -56.18789062 9.10578125 -55.63671875 8.4921875 C-54.84974609 7.56792969 -54.84974609 7.56792969 -54.046875 6.625 C-40.4492168 -8.28443228 -16.87189131 -9.64822229 0 0 Z " fill="#2092D0" transform="translate(199.63671875,19.5078125)"/>
<path d="M0 0 C2.83113692 1.34225216 5.19294031 3.12925303 7.7109375 4.9921875 C28.33395554 19.6245022 53.55610855 27.27859426 77.3359375 35.2421875 C78.10239594 35.49943604 78.86885437 35.75668457 79.65853882 36.02172852 C87.06440684 38.4954213 94.44685951 40.87873763 102.03515625 42.73828125 C103.57840576 43.11762817 103.57840576 43.11762817 105.15283203 43.50463867 C106.99647907 43.93818894 108.84780757 44.34088598 110.70654297 44.7043457 C116.26454917 45.97835986 116.26454917 45.97835986 118.15600586 48.56225586 C120.25256293 53.50890629 120.46855488 58.68243943 120.3984375 63.9921875 C120.38941406 64.82145752 120.38039062 65.65072754 120.37109375 66.50512695 C119.87276978 84.51919259 111.80450044 100.83305568 100.9609375 114.9296875 C98.31602122 112.28477122 97.91458858 109.88761941 96.8359375 106.3046875 C89.67411937 83.74907639 76.54693071 62.44577821 55.34765625 50.87890625 C44.2052898 45.20419692 31.49693947 41.41495209 18.9609375 40.9296875 C17.85234375 40.878125 16.74375 40.8265625 15.6015625 40.7734375 C-9.55286159 40.1673068 -33.08368964 46.91095795 -56.18579102 56.2746582 C-58.0390625 56.9296875 -58.0390625 56.9296875 -60.0390625 56.9296875 C-58.53022108 52.71125129 -56.40181081 49.04729718 -53.9765625 45.3046875 C-53.57880615 44.69077148 -53.1810498 44.07685547 -52.77124023 43.44433594 C-43.55679998 29.46030258 -19.85622135 -0.68469729 0 0 Z " fill="#69C1ED" transform="translate(60.0390625,151.0703125)"/>
<path d="M0 0 C1.15097168 0.01981934 2.30194336 0.03963867 3.48779297 0.06005859 C4.73689453 0.07166016 5.98599609 0.08326172 7.27294922 0.09521484 C8.57876953 0.13259766 9.88458984 0.16998047 11.22998047 0.20849609 C12.54353516 0.22267578 13.85708984 0.23685547 15.21044922 0.25146484 C24.92361886 0.40213449 24.92361886 0.40213449 26.10498047 1.58349609 C26.33140992 7.17239949 25.82070689 12.3036425 24.80395508 17.7878418 C24.6657988 18.56447678 24.52764252 19.34111176 24.38529968 20.14128113 C24.08712752 21.81250364 23.7858269 23.4831705 23.48167229 25.15331459 C23.0006713 27.79582698 22.52846986 30.43978149 22.05848694 33.08427429 C20.89085175 39.64423383 19.70874569 46.20156763 18.52618408 52.7588501 C17.52433649 58.31666518 16.52840325 63.87547386 15.54065132 69.435812 C15.07511348 72.04216499 14.60079931 74.64682431 14.12620544 77.25154114 C13.8425639 78.84298946 13.55934276 80.43451279 13.27661133 82.02612305 C13.14210571 82.75082794 13.0076001 83.47553284 12.86901855 84.22219849 C12.29815053 87.4863508 12.03855019 89.38420526 13.10498047 92.58349609 C14.42216064 92.60331543 15.73934082 92.62313477 17.09643555 92.64355469 C21.97749135 92.7195545 26.85824685 92.80828058 31.73901367 92.90087891 C33.85256019 92.93919191 35.96617243 92.97404067 38.07983398 93.00537109 C41.11579907 93.05097113 44.15131075 93.10897393 47.18701172 93.16943359 C48.13397415 93.1809848 49.08093658 93.19253601 50.05659485 93.20443726 C50.93728134 93.22430695 51.81796783 93.24417664 52.7253418 93.26464844 C53.50033524 93.27797211 54.27532867 93.29129578 55.07380676 93.30502319 C57.10498047 93.58349609 57.10498047 93.58349609 60.10498047 95.58349609 C59.73942837 102.3525125 58.98858918 108.98893915 57.72998047 115.64599609 C57.49537109 116.89509766 57.26076172 118.14419922 57.01904297 119.43115234 C55.77713914 123.71412837 55.77713914 123.71412837 53.10498047 125.58349609 C50.59918279 125.87941557 48.34149773 125.99357181 45.83544922 125.97167969 C45.09855865 125.97693665 44.36166809 125.9821936 43.60244751 125.98760986 C41.16557649 126.00081844 38.72935819 125.99206912 36.29248047 125.98193359 C34.600015 125.98395409 32.90755038 125.98686533 31.21508789 125.9906311 C27.66755893 125.9950556 24.12025654 125.98861945 20.57275391 125.97460938 C16.02280138 125.95751729 11.4733797 125.96735782 6.92344666 125.98532677 C3.42846671 125.99616127 -0.06638713 125.99271983 -3.56137085 125.98494339 C-5.23912621 125.98294045 -6.91689297 125.98540394 -8.59463501 125.99238205 C-10.93856178 125.99999121 -13.28162586 125.98840074 -15.62548828 125.97167969 C-16.32064545 125.97775238 -17.01580261 125.98382507 -17.73202515 125.99008179 C-22.43138286 125.92789453 -22.43138286 125.92789453 -24.60909462 124.31024742 C-25.89501953 122.58349609 -25.89501953 122.58349609 -26.03287315 120.70344925 C-25.92158892 120.00090389 -25.81030468 119.29835854 -25.69564819 118.57452393 C-25.57637341 117.7745121 -25.45709862 116.97450027 -25.33420944 116.15024567 C-25.18927677 115.30321831 -25.0443441 114.45619095 -24.89501953 113.58349609 C-24.76337025 112.74873497 -24.63172096 111.91397385 -24.49608231 111.05391693 C-24.04773408 108.27414252 -23.56939823 105.50075781 -23.08496094 102.72705078 C-22.81399345 101.15704819 -22.81399345 101.15704819 -22.53755188 99.55532837 C-21.94378278 96.12144162 -21.34564083 92.68833876 -20.74658203 89.25537109 C-20.43914629 87.48983761 -20.43914629 87.48983761 -20.12549973 85.68863678 C-19.04248741 79.47072575 -17.95598912 73.25343532 -16.86669922 67.03662109 C-15.7425555 60.61669943 -14.63066007 54.19471878 -13.52147865 47.77219772 C-12.66528729 42.82794454 -11.79997839 37.88531861 -10.93217087 32.94309235 C-10.51808358 30.57540815 -10.10745934 28.20711559 -9.70036697 25.83821869 C-9.13118949 22.53115723 -8.54913192 19.22661006 -7.96386719 15.92236328 C-7.79856003 14.9445993 -7.63325287 13.96683533 -7.4629364 12.95944214 C-5.32226383 1.0727113 -5.32226383 1.0727113 0 0 Z " fill="#2092D0" transform="translate(750.89501953125,2.41650390625)"/>
<path d="M0 0 C1.67316284 0.0314209 1.67316284 0.0314209 3.38012695 0.06347656 C4.58862305 0.07636719 5.79711914 0.08925781 7.04223633 0.10253906 C8.30487305 0.13605469 9.56750977 0.16957031 10.8684082 0.20410156 C12.14264648 0.22214844 13.41688477 0.24019531 14.72973633 0.25878906 C17.88087662 0.30599716 21.03051961 0.37183772 24.1809082 0.45410156 C25.89685578 4.10517123 26.37787525 6.3821245 25.68232727 10.34960938 C25.44052986 11.787901 25.44052986 11.787901 25.19384766 13.25524902 C25.00435547 14.29540161 24.81486328 15.3355542 24.61962891 16.40722656 C24.42966843 17.51183228 24.23970795 18.61643799 24.04399109 19.7545166 C23.41203606 23.40693854 22.75988691 27.05542348 22.10668945 30.70410156 C21.66169037 33.24072375 21.21762653 35.77751017 20.77445984 38.31445312 C19.84236967 43.63214328 18.90088255 48.94803962 17.95166016 54.26269531 C16.8556199 60.40010881 15.77680645 66.54035827 14.70733577 72.68245316 C13.67684942 78.59856878 12.63462041 84.51253956 11.58705711 90.42565918 C11.14287966 92.93858057 10.70156197 95.45200918 10.26314735 97.96594238 C9.64857189 101.47950354 9.02071795 104.9904338 8.38916016 108.50097656 C8.20978912 109.54112915 8.03041809 110.58128174 7.84561157 111.6529541 C6.02534162 121.60966815 6.02534162 121.60966815 2.1809082 125.45410156 C-2.12556816 125.70752392 -6.44354234 125.63932795 -10.7565918 125.64160156 C-12.58480469 125.6599707 -12.58480469 125.6599707 -14.44995117 125.67871094 C-16.19308594 125.68161133 -16.19308594 125.68161133 -17.97143555 125.68457031 C-19.5800647 125.69073364 -19.5800647 125.69073364 -21.22119141 125.69702148 C-23.8190918 125.45410156 -23.8190918 125.45410156 -25.8190918 123.45410156 C-25.94674746 115.73920523 -24.35777753 107.90755882 -23.0090332 100.33300781 C-22.82838821 99.29404861 -22.64774323 98.25508942 -22.46162415 97.18464661 C-21.87036758 93.79426477 -21.27105167 90.40537575 -20.6706543 87.01660156 C-20.25313079 84.64439575 -19.83576477 82.27216222 -19.41854858 79.89990234 C-18.5465176 74.95031179 -17.67000217 70.00153907 -16.79077148 65.05322266 C-15.66423737 58.70882033 -14.55300867 52.36183995 -13.44555092 46.01408386 C-12.59009346 41.1246328 -11.72460032 36.23699798 -10.85624313 31.349823 C-10.44201504 29.00925509 -10.03139231 26.66804616 -9.62443924 24.32620239 C-9.05610044 21.06218264 -8.47382244 17.80094862 -7.88793945 14.54003906 C-7.72263229 13.57274368 -7.55732513 12.6054483 -7.38700867 11.60884094 C-7.22446091 10.72036972 -7.06191315 9.8318985 -6.8944397 8.91650391 C-6.75839136 8.14672211 -6.62234303 7.37694031 -6.48217201 6.58383179 C-5.29412833 2.76798497 -4.02478642 0.64831582 0 0 Z " fill="#2092D0" transform="translate(842.819091796875,2.5458984375)"/>
<path d="M0 0 C0.64453125 0.41636719 1.2890625 0.83273438 1.953125 1.26171875 C2.65953125 1.70902344 3.3659375 2.15632812 4.09375 2.6171875 C11.54995632 7.76749298 16.23320357 14.29166696 17.953125 23.26171875 C19.07573131 34.95325271 17.10246795 44.21197085 9.72265625 53.44140625 C3.45296602 59.89102136 -4.00134326 63.41512727 -13.01025391 63.74389648 C-23.82766497 63.83308454 -31.87852862 61.382986 -40.046875 53.88671875 C-45.5019536 47.83291201 -47.20108245 42.21382714 -48.046875 34.26171875 C-47.37744873 34.21160645 -46.70802246 34.16149414 -46.01831055 34.10986328 C-42.92318239 33.87474977 -39.82881022 33.63077662 -36.734375 33.38671875 C-35.68185547 33.30808594 -34.62933594 33.22945312 -33.54492188 33.1484375 C-26.61111721 32.59373313 -19.86388204 31.64566712 -13.046875 30.26171875 C-13.046875 29.93171875 -13.046875 29.60171875 -13.046875 29.26171875 C-13.78736084 29.15102051 -14.52784668 29.04032227 -15.29077148 28.92626953 C-18.68913702 28.41634225 -22.08675142 27.90156552 -25.484375 27.38671875 C-26.64904297 27.21269531 -27.81371094 27.03867188 -29.01367188 26.859375 C-35.42674837 25.88386477 -41.73502065 24.76036224 -48.046875 23.26171875 C-44.9339118 12.88783199 -40.25827719 5.66868676 -30.8671875 -0.0703125 C-21.79005908 -4.39493765 -8.95442817 -4.87025196 0 0 Z " fill="#FBD232" transform="translate(321.046875,168.73828125)"/>
</svg>
