<svg xmlns="http://www.w3.org/2000/svg" width="41.5" height="37" viewBox="0 0 41.5 37">
  <g id="Pin_-_Hotel_Icon" data-name="Pin - Hotel Icon" transform="translate(0.5 0.5)">
    <path id="Icon_awesome-hotel" data-name="Icon awesome-hotel" d="M39.375,4.5A1.125,1.125,0,0,0,40.5,3.375V1.125A1.125,1.125,0,0,0,39.375,0H1.125A1.125,1.125,0,0,0,0,1.125v2.25A1.125,1.125,0,0,0,1.125,4.5H2.249v27H1.125A1.125,1.125,0,0,0,0,32.625v2.25A1.125,1.125,0,0,0,1.125,36H18V30.375a1.128,1.128,0,0,1,1.125-1.125h2.25A1.128,1.128,0,0,1,22.5,30.375V36H39.375A1.125,1.125,0,0,0,40.5,34.875v-2.25A1.125,1.125,0,0,0,39.375,31.5H38.25V4.5ZM18,7.65a.968.968,0,0,1,.9-.9h2.7a.968.968,0,0,1,.9.9v2.7a.968.968,0,0,1-.9.9H18.9a.968.968,0,0,1-.9-.9V7.65Zm0,6.75a.968.968,0,0,1,.9-.9h2.7a.968.968,0,0,1,.9.9v2.7a.968.968,0,0,1-.9.9H18.9a.968.968,0,0,1-.9-.9V14.4ZM9,7.65a.968.968,0,0,1,.9-.9h2.7a.968.968,0,0,1,.9.9v2.7a.968.968,0,0,1-.9.9H9.9a.968.968,0,0,1-.9-.9ZM12.6,18H9.9a.968.968,0,0,1-.9-.9V14.4a.968.968,0,0,1,.9-.9h2.7a.968.968,0,0,1,.9.9v2.7A.968.968,0,0,1,12.6,18Zm.9,9A6.75,6.75,0,0,1,27,27Zm18-9.9a.968.968,0,0,1-.9.9H27.9a.968.968,0,0,1-.9-.9V14.4a.968.968,0,0,1,.9-.9h2.7a.968.968,0,0,1,.9.9Zm0-6.75a.968.968,0,0,1-.9.9H27.9a.968.968,0,0,1-.9-.9V7.65a.968.968,0,0,1,.9-.9h2.7a.968.968,0,0,1,.9.9Z" fill="#fca311" stroke="#000" stroke-width="1"/>
  </g>
</svg>
